<?xml version="1.0" standalone="no"?>
<!DOCTYPE svg PUBLIC "-//W3C//DTD SVG 20010904//EN"
 "http://www.w3.org/TR/2001/REC-SVG-20010904/DTD/svg10.dtd">
<svg version="1.0" xmlns="http://www.w3.org/2000/svg"
 width="192.000000pt" height="192.000000pt" viewBox="0 0 192.000000 192.000000"
 preserveAspectRatio="xMidYMid meet">
<metadata>
Created by potrace 1.14, written by Peter Selinger 2001-2017
</metadata>
<g transform="translate(0.000000,192.000000) scale(0.100000,-0.100000)"
fill="#000000" stroke="none">
<path d="M458 1438 c-21 -5 -53 -24 -71 -41 -55 -51 -68 -90 -74 -205 -4 -91
-2 -109 17 -147 12 -25 36 -57 53 -71 36 -31 115 -68 167 -79 83 -17 140 -37
166 -60 27 -24 29 -29 28 -101 -1 -105 -12 -114 -143 -114 -126 0 -131 4 -141
104 -9 90 -21 108 -76 108 -62 0 -77 -28 -71 -127 9 -152 68 -221 200 -233 39
-4 111 -4 159 -1 109 7 158 36 195 114 20 44 23 64 22 159 -2 125 -13 154 -83
210 -42 34 -131 72 -193 82 -50 8 -114 32 -135 51 -27 24 -26 150 1 185 19 23
25 25 118 23 54 -1 104 -2 111 -3 19 -3 42 -65 42 -115 0 -56 29 -85 79 -80
50 5 61 26 59 111 -2 119 -48 195 -137 227 -50 17 -232 19 -293 3z"/>
<path d="M1029 1431 l-23 -19 -1 -433 c-1 -239 3 -447 7 -463 10 -37 23 -46
70 -46 63 0 74 25 72 171 0 113 2 128 23 165 13 23 31 49 42 58 17 16 21 12
72 -71 30 -48 59 -96 64 -105 58 -101 129 -207 141 -212 31 -12 81 -6 97 12
27 30 20 57 -40 157 -32 52 -67 110 -78 129 -11 19 -48 81 -83 139 l-63 104
121 173 c71 103 120 182 120 196 0 57 -83 85 -128 44 -18 -17 -56 -67 -122
-164 -87 -127 -152 -216 -158 -216 -4 0 -7 81 -7 181 0 178 -1 181 -24 200
-30 24 -72 24 -102 0z"/>
</g>
</svg>
